Coordinates
version=1
nRows=6
nColumns=36
inDegrees=yes

Units are S.I. units (second, meters, Newtons, ...)
If the header above contains a line with 'inDegrees', this indicates whether rotational values are in degrees (yes) or radians (no).

endheader
time	pelvis_tilt	pelvis_list	pelvis_rotation	pelvis_tx	pelvis_ty	pelvis_tz	hip_flexion_r	hip_adduction_r	hip_rotation_r	knee_angle_r	knee_angle_r_beta	ankle_angle_r	subtalar_angle_r	mtp_angle_r	hip_flexion_l	hip_adduction_l	hip_rotation_l	knee_angle_l	knee_angle_l_beta	ankle_angle_l	subtalar_angle_l	mtp_angle_l	lumbar_extension	lumbar_bending	lumbar_rotation	arm_flex_r	arm_add_r	arm_rot_r	elbow_flex_r	pro_sup_r	arm_flex_l	arm_add_l	arm_rot_l	elbow_flex_l	pro_sup_l
     44.75000000	      2.49572174	     -4.00945959	     -2.29594711	      0.47883604	      1.02499966	      0.71203808	    -10.34633273	      5.67677542	      2.77659099	     11.55514492	      0.20167532	     20.96857690	      0.97123034	     -7.49999987	     21.96332604	     -5.27376416	     -0.36211556	      7.62461255	      0.13307459	      3.51456280	      2.85706818	     -7.49999987	    -17.70507613	      3.58775292	      7.11056408	      9.27760958	    -18.99180269	      7.55433385	     37.84250412	     81.17504669	      8.79772209	     -8.35161368	     15.19274628	     20.82780252	     90.60010067
     44.76666670	      2.19543315	     -3.63051861	     -2.63891684	      0.48685994	      1.02455321	      0.70708703	    -10.05889472	      4.97296500	      3.20014804	     13.05911016	      0.22792447	     21.38442894	      0.50040493	     -7.49999987	     22.05103347	     -4.73559044	     -0.91848927	      9.29409010	      0.16221247	      2.58808337	      2.72932484	     -7.49999987	    -16.71733977	      3.07711964	      7.18829279	      8.40194664	    -18.45567598	      7.06836147	     36.26502670	     81.14282212	      8.66896002	     -8.38764840	     15.08522136	     20.42937692	     90.58492394
     44.78333330	      2.43200822	     -3.13184995	     -2.80424037	      0.49530173	      1.02617407	      0.70173769	    -10.31927109	      4.07552539	      3.41626692	     14.67371750	      0.25610468	     21.41860724	     -0.03057762	     -7.49999987	     21.39906668	     -3.99370134	     -1.24477395	     11.05634894	      0.19296969	      1.71979181	      2.53868059	     -7.49999987	    -16.41732367	      2.49540072	      6.82280864	      7.42195593	    -18.05657825	      6.89711660	     35.63260765	     81.08678734	      8.36970299	     -8.58719357	     15.03996828	     20.26253598	     90.51662876
     44.80000000	      2.54132551	     -2.61337639	     -3.01078781	      0.50161728	      1.02779221	      0.69822747	    -10.29707011	      3.15478800	      3.90630826	     16.60134646	      0.28974816	     20.95151838	     -1.21907427	     -7.49999987	     20.72479349	     -3.27167805	     -1.41827332	     12.67210714	      0.22116999	      0.78151935	      2.05443377	     -7.49999987	    -15.81092483	      1.84654940	      6.84089475	      6.29267814	    -17.09192094	      4.44512650	     33.84205023	     80.83153565	      8.36462204	     -8.61181466	     15.66748760	     19.40565607	     89.77856482
     44.81666670	      2.66041232	     -2.13021844	     -3.14034769	      0.50515399	      1.02877569	      0.69646602	    -10.09269307	      2.25773544	      4.20460143	     18.83610091	      0.32875198	     20.27169775	     -2.36064693	     -7.49999987	     19.99915378	     -2.60538178	     -1.47570179	     14.11670380	      0.24638296	      0.12078912	      1.57778698	     -7.49999987	    -15.36868880	      1.24739686	      6.67058107	      5.37531995	    -16.49063377	      3.63312711	     32.29955099	     80.22740311	      8.20381486	     -8.71104799	     16.08256810	     18.83906684	     88.46483424
     44.83333330	      2.92256171	     -1.70355604	     -3.27348213	      0.50741034	      1.02960985	      0.69534436	     -9.77175881	      1.43823811	      4.54987971	     21.44046676	      0.37420674	     19.30828963	     -3.77267509	     -7.49999987	     19.07127884	     -2.03882651	     -1.49602135	     15.33836832	      0.26770503	     -0.30405770	      1.03767952	     -7.49999987	    -15.31947716	      0.69040088	      6.40470492	      4.69703106	    -15.91442567	      2.98352125	     31.02520054	     79.75270937	      8.02208989	     -8.89674869	     16.37573755	     18.56812647	     87.34517832
